<svg viewBox="0 0 250 72" xmlns="http://www.w3.org/2000/svg" xmlns:xlink="http://www.w3.org/1999/xlink"><linearGradient id="a"><stop offset=".001" stop-opacity="0"/><stop offset="1" stop-opacity=".2"/></linearGradient><linearGradient id="b" gradientTransform="matrix(1 0 0 -1 0 74)" gradientUnits="userSpaceOnUse" x1="20.869" x2="17.755" xlink:href="#a" y1="60.205" y2="57.592"/><linearGradient id="c" gradientTransform="matrix(1 0 0 -1 0 74)" gradientUnits="userSpaceOnUse" x1="21.583" x2="27.523" xlink:href="#a" y1="14.987" y2="18.416"/><linearGradient id="d" gradientTransform="scale(-1 1) rotate(-45 756.865 368.353)" gradientUnits="userSpaceOnUse" x1="399.416" x2="393.453" y1="-432.64" y2="-438.603"><stop offset="0" stop-opacity=".2"/><stop offset="1" stop-opacity="0"/></linearGradient><path d="M101 14.9c1.3.6 2.5 1.7 3.5 3.1l-2.9 3c-.7-1.5-1.9-2.7-3.5-3.2-1.4-.4-3.4-.4-4.7.5-1.3 1-1.3 2.9.1 3.7s3 .9 4.5 1.3c1.6.4 3.3.9 4.5 1.9 1.3 1 1.9 2.5 1.8 4.2 0 1.7-.7 3.3-2.1 4.4-1.3 1.1-3 1.6-4.7 1.8-3.8.4-8.1-.4-10.3-3.8l2.5-3.1c.7 1.3 1.7 2.4 3.1 2.9 1.4.6 3.2.7 4.7.4 1.2-.2 2.6-1.1 2.3-2.6-.2-1.3-2-1.7-3-1.9-1.6-.4-3.2-.7-4.7-1.3-1.3-.5-2.7-1.2-3.5-2.4-1.7-2.6-.7-6.4 1.8-8.1 1.5-1 3.3-1.5 5.1-1.5 2-.3 3.8-.1 5.5.7zm16.1 20.3h-4.2v-21h4.2zm25.7-17.4h-6.7v17.5h-4.2V17.8h-6.7v-3.5h17.7zm23.5 14v3.5h-15.5v-21h15v3.5h-10.9V23h8.5v3.4h-8.5v5.3zm30.1 3.6h-3.8V24.5l.2-6.1h-.1l-5.6 17.1h-3.4l-5.5-17.1h-.1l.2 6.1v10.9h-3.8v-21h6.1l3.6 11.5 1.3 4.7h.1l1.3-4.7 3.6-11.5h5.9zm21.2-5.1h-7.7l-1.6 5.1H204l7.4-21h5l7.3 21h-4.3zm-1-3.3l-1.9-5.9-.9-3.2h-.1l-.9 3.1-2 6zm28.5-10.8c1.3 1.2 1.9 2.8 1.9 4.6.1 1.7-.3 3.4-1.4 4.7-1.9 2.2-4.7 2.3-7.4 2.3h-2.8v7.6h-4.2v-21c2.9 0 5.9-.1 8.9 0 1.8.1 3.6.6 5 1.8zm-3.3 7.4c1.5-1.3 1.2-4.4-.6-5.2-1.3-.6-2.8-.4-4.2-.4h-1.6v6.5h2.8c1.2-.1 2.6-.1 3.6-.9z" fill="#353535"/><path d="M108.4 50.9h-9.9c.1 2.1 1.1 4.2 3.3 4.8 2 .6 4.6-.1 5.4-2.2l1 .6c-1.4 2.8-5.3 3.7-8 2.2-2.8-1.5-3.4-5.3-2.7-8.2.7-3.1 3.4-4.8 6.5-4.3 3.4.7 4.8 4.1 4.4 7.1zm-8.6-4.7c-.8.9-1.2 2.1-1.3 3.6h8.7c-.1-1.8-.8-3.8-2.5-4.6-1.6-.7-3.7-.3-4.9 1zm26.6 10.6l-4.2-5.6-4.1 5.6h-1.5l4.9-6.5-4.7-6.2h1.6l3.9 5.2 3.8-5.2h1.5l-4.6 6.1 4.9 6.6zm21-11.3c2.1 2.4 2.1 7 .1 9.5-2.3 2.9-7.4 2.5-8.9-1v8h-1.2V44h1.1l.1 2.9c1.3-3.6 6.4-4.1 8.8-1.4zm-.9 8.9c1.8-2.1 1.7-6.2-.2-8.2s-5.5-1.6-6.9.8c-1.1 1.9-1.1 4.9 0 6.8 1.5 2.5 5.3 2.9 7.1.6zm14-.7c0 2 1.4 2.6 3.2 1.8l-.2 1.2c-5.3 2.5-4.3-5.6-4.3-8.3V38.2h1.2v15.5zm21.7-8.1c2.1 2.3 2.2 6.8.3 9.3-2 2.7-6.7 2.9-9 .4-2.1-2.3-2.2-6.6-.4-9.1 2-3 6.7-3.3 9.1-.6zm-7.8.8c-1.7 2.1-1.8 6 0 8.1 1.7 2 5.2 2 6.9 0 1.7-2.1 1.7-6 0-8.1-1.7-2-5.2-2-6.9 0zm26.5-2.2l-.3 1.2c-1.5-1.2-3.6-.1-4.4 1.3-.7 1.2-.8 2.5-.8 3.8v6.2h-1.2V44h1l.1 2.6c.7-1.9 3.5-3.9 5.6-2.4zm19 6.7H210c.1 2.1 1.1 4.2 3.3 4.8 2 .6 4.6-.1 5.4-2.2l1 .6c-1.4 2.8-5.3 3.7-8 2.2-2.8-1.5-3.4-5.3-2.7-8.2.7-3.1 3.4-4.8 6.5-4.3 3.4.7 4.8 4.1 4.4 7.1zm-8.5-4.7c-.8.9-1.2 2.1-1.3 3.6h8.7c-.1-1.8-.8-3.8-2.5-4.6-1.6-.7-3.8-.3-4.9 1zm25.6-2l-.3 1.2c-1.5-1.2-3.6-.1-4.4 1.3-.7 1.2-.8 2.5-.8 3.8v6.2h-1.2V44h1l.1 2.6c.8-1.9 3.6-3.9 5.6-2.4z" fill="#7f7f7f"/><path d="M59 36.2L45.5 36l10.1 14.1 6.7-9.3zm3.3 23.2l3.4 4.9 13.4.1-10.2-14.2z" fill="#1ebcd2"/><path d="M45.5 64.3l13.3-.1 3.5-4.9-6.7-9.2zM79.1 36l-13.5.1-3.3 4.7 6.6 9.3z" fill="#f2b329"/><path d="M62.3 40.9l-6.7 9.3 6.7 9.2 6.6-9.2zM42.8 21.8L32.6 7.6H12.2l10.2 14.2z" fill="#1d9c5a"/><path d="M2 50.2l10.2 14.3h20.4L22.4 50.2z" fill="#4688f1"/><path d="M2 21.8l20.4 28.4h20.4L22.4 21.8z" fill="#f2b329"/><path d="M12.2 7.6L2 21.8h20.4z" fill="#1ebcd2"/><path d="M32.6 64.4l10.2-14.3H22.4z" fill="#d9453c"/><path d="M22.3 21.8h5.3L12.1 7.6z" fill="url(#b)"/><path d="M16.5 50.2l16.1 14.3-10.2-14.3z" fill="url(#c)"/><path d="M62.3 59.4l6.6-9.2.7.9 1.1 1.6z" fill="url(#d)"/></svg>