<svg enable-background="new 0 0 250 72" viewBox="0 0 250 72" xmlns="http://www.w3.org/2000/svg" xmlns:xlink="http://www.w3.org/1999/xlink"><linearGradient id="a"><stop offset=".001161859" stop-opacity="0"/><stop offset="1" stop-opacity=".2"/></linearGradient><linearGradient id="b" gradientUnits="userSpaceOnUse" x1="20.8604" x2="17.7464" xlink:href="#a" y1="9.134" y2="11.747"/><linearGradient id="c" gradientUnits="userSpaceOnUse" x1="21.5835" x2="27.5231" xlink:href="#a" y1="54.3638" y2="50.9345"/><linearGradient id="d" gradientTransform="matrix(-.7071 -.7071 .7071 -.7071 -104.7659 775.6046)" gradientUnits="userSpaceOnUse" x1="394.8783" x2="388.9153" y1="631.1143" y2="637.0773"><stop offset="0" stop-opacity=".2"/><stop offset="1" stop-opacity="0"/></linearGradient><path d="m101 21.5c1.3.6 2.5 1.7 3.5 3.1l-2.9 3c-.7-1.5-1.9-2.7-3.5-3.2-1.4-.4-3.4-.4-4.7.5-1.3 1-1.3 2.9.1 3.7s3 .9 4.5 1.3c1.6.4 3.3.9 4.5 1.9 1.3 1 1.9 2.5 1.8 4.2 0 1.7-.7 3.3-2.1 4.4-1.3 1.1-3 1.6-4.7 1.8-3.8.4-8.1-.4-10.3-3.8l2.5-3.1c.7 1.3 1.7 2.4 3.1 2.9 1.4.6 3.2.7 4.7.4 1.2-.2 2.6-1.1 2.3-2.6-.2-1.3-2-1.7-3-1.9-1.6-.4-3.2-.7-4.7-1.3-1.3-.5-2.7-1.2-3.5-2.4-1.7-2.6-.7-6.4 1.8-8.1 1.5-1 3.3-1.5 5.1-1.5 2-.3 3.8-.1 5.5.7z" fill="#c6c6c6"/><path d="m117.1 41.8h-4.2v-21h4.2z" fill="#c6c6c6"/><path d="m142.8 24.4h-6.7v17.5h-4.2v-17.5h-6.7v-3.5h17.7z" fill="#c6c6c6"/><path d="m166.3 38.4v3.5h-15.5v-21h15v3.5h-10.9v5.2h8.5v3.4h-8.5v5.3z" fill="#c6c6c6"/><path d="m196.4 42h-3.8v-10.9l.2-6.1h-.1l-5.6 17.1h-3.4l-5.5-17.1h-.1l.2 6.1v10.9h-3.8v-21h6.1l3.6 11.5 1.3 4.7h.1l1.3-4.7 3.6-11.5h5.9z" fill="#c6c6c6"/><path d="m217.6 36.9h-7.7l-1.6 5.1h-4.3l7.4-21h5l7.3 21h-4.3zm-1-3.3-1.9-5.9-.9-3.2h-.1l-.9 3.1-2 6z" fill="#c6c6c6"/><path d="m245.1 22.8c1.3 1.2 1.9 2.8 1.9 4.6.1 1.7-.3 3.4-1.4 4.7-1.9 2.2-4.7 2.3-7.4 2.3-.9 0-1.9 0-2.8 0v7.6h-4.2v-21c2.9 0 5.9-.1 8.9 0 1.8.1 3.6.6 5 1.8zm-3.3 7.4c1.5-1.3 1.2-4.4-.6-5.2-1.3-.6-2.8-.4-4.2-.4-.5 0-1.1 0-1.6 0v6.5h2.8c1.2-.1 2.6-.1 3.6-.9z" fill="#c6c6c6"/><g fill="#aaa"><path d="m108.4 57.5h-9.9c.1 2.1 1.1 4.2 3.3 4.8 2 .6 4.6-.1 5.4-2.2l1 .6c-1.4 2.8-5.3 3.7-8 2.2-2.8-1.5-3.4-5.3-2.7-8.2.7-3.1 3.4-4.8 6.5-4.3 3.4.7 4.8 4.1 4.4 7.1zm-8.6-4.7c-.8.9-1.2 2.1-1.3 3.6h8.7c-.1-1.8-.8-3.8-2.5-4.6-1.6-.7-3.7-.3-4.9 1z"/><path d="m126.4 63.4-4.2-5.6-4.1 5.6h-1.5l4.9-6.5-4.7-6.2h1.6l3.9 5.2 3.8-5.2h1.5l-4.6 6.1 4.9 6.6z"/><path d="m147.4 52.1c2.1 2.4 2.1 7 .1 9.5-2.3 2.9-7.4 2.5-8.9-1v8h-1.2v-18h1.1l.1 2.9c1.3-3.6 6.4-4.1 8.8-1.4zm-.9 8.9c1.8-2.1 1.7-6.2-.2-8.2s-5.5-1.6-6.9.8c-1.1 1.9-1.1 4.9 0 6.8 1.5 2.5 5.3 2.9 7.1.6z"/><path d="m160.5 60.3c0 2 1.4 2.6 3.2 1.8l-.2 1.2c-5.3 2.5-4.3-5.6-4.3-8.3 0-3.4 0-6.8 0-10.2h1.2v15.5z"/><path d="m182.2 52.2c2.1 2.3 2.2 6.8.3 9.3-2 2.7-6.7 2.9-9 .4-2.1-2.3-2.2-6.6-.4-9.1 2-3 6.7-3.3 9.1-.6zm-7.8.8c-1.7 2.1-1.8 6 0 8.1 1.7 2 5.2 2 6.9 0 1.7-2.1 1.7-6 0-8.1-1.7-2-5.2-2-6.9 0z"/><path d="m200.9 50.8-.3 1.2c-1.5-1.2-3.6-.1-4.4 1.3-.7 1.2-.8 2.5-.8 3.8v6.2h-1.2v-12.7h1l.1 2.6c.7-1.9 3.5-3.9 5.6-2.4z"/><path d="m219.9 57.5h-9.9c.1 2.1 1.1 4.2 3.3 4.8 2 .6 4.6-.1 5.4-2.2l1 .6c-1.4 2.8-5.3 3.7-8 2.2-2.8-1.5-3.4-5.3-2.7-8.2.7-3.1 3.4-4.8 6.5-4.3 3.4.7 4.8 4.1 4.4 7.1zm-8.5-4.7c-.8.9-1.2 2.1-1.3 3.6h8.7c-.1-1.8-.8-3.8-2.5-4.6-1.6-.7-3.8-.3-4.9 1z"/><path d="m237 50.8-.3 1.2c-1.5-1.2-3.6-.1-4.4 1.3-.7 1.2-.8 2.5-.8 3.8v6.2h-1.2v-12.7h1l.1 2.6c.8-1.9 3.6-3.9 5.6-2.4z"/></g><path d="m59 31.5-13.5-.1 10.1 14.1 6.7-9.3z" fill="#1ebcd2"/><path d="m62.3 54.7 3.4 4.9 13.4.1-10.2-14.2z" fill="#1ebcd2"/><path d="m45.5 59.7 13.3-.1 3.5-4.9-6.7-9.2z" fill="#f2b329"/><path d="m79.1 31.4-13.5.1-3.3 4.7 6.6 9.3z" fill="#f2b329"/><path d="m62.3 36.2-6.7 9.3 6.7 9.2 6.6-9.2z" fill="#1d9c5a"/><path d="m42.8 17.1-10.2-14.2h-20.4l10.2 14.2z" fill="#1d9c5a"/><path d="m2 17.1 10.2-14.2z" fill="#d9453c"/><path d="m2 45.5 10.2 14.3h20.4l-10.2-14.3z" fill="#4688f1"/><path d="m2 17.1 20.4 28.4h20.4l-20.4-28.4z" fill="#f2b329"/><path d="m12.2 2.9-10.2 14.2h20.4z" fill="#1ebcd2"/><path d="m32.6 59.8 10.2-14.3h-20.4z" fill="#d9453c"/><path d="m22.3 17.1h5.3l-15.5-14.2z" fill="url(#b)"/><path d="m16.5 45.5 16.1 14.3-10.2-14.3z" fill="url(#c)"/><path d="m62.3 54.7 6.6-9.2.7.9 1.1 1.6z" fill="url(#d)"/></svg>