<?xml version="1.0" encoding="utf-8"?>
<!-- Generator: Adobe Illustrator 21.0.0, SVG Export Plug-In . SVG Version: 6.00 Build 0)  -->
<svg version="1.1" id="Layer_1" xmlns="http://www.w3.org/2000/svg" xmlns:xlink="http://www.w3.org/1999/xlink" x="0px" y="0px"
	 viewBox="0 0 800 800" style="enable-background:new 0 0 800 800;" xml:space="preserve">
<style type="text/css">
	.st0{fill:#F2F2F2;}
	.st1{fill:none;stroke:#4688F1;stroke-width:4;stroke-miterlimit:10;}
	.st2{fill:#1EBCD2;}
	.st3{fill:#F2B329;}
	.st4{fill:#4688F1;}
	.st5{fill:#3F3D56;}
	.st6{fill:none;stroke:#3F3D56;stroke-width:2;stroke-miterlimit:10;}
</style>
<g>
	<rect x="24.4" y="79" class="st0" width="436.7" height="272.4"/>
	<rect x="52" y="52.5" class="st1" width="436.7" height="272.4"/>
	<path class="st2" d="M337.4,254.8c36.8-36.8,36.8-96.4,0-133.1c-17.7-17.7-41.6-27.6-66.6-27.6v94.1L337.4,254.8z"/>
	<path class="st3" d="M270.8,94.1c-52,0-94.1,42.2-94.1,94.2c0,34.5,18.8,66.2,49.1,82.7l45-82.7V94.1z"/>
	<path class="st4" d="M337.4,254.8l-66.6-66.6l-45,82.7C262.4,290.8,307.9,284.3,337.4,254.8L337.4,254.8z"/>
	<rect x="68.5" y="288.3" class="st3" width="18" height="18"/>
	<rect x="94.5" y="268.3" class="st2" width="18" height="18"/>
	<rect x="120.6" y="268.3" class="st4" width="18" height="18"/>
	<rect x="380" y="272.3" class="st5" width="74.1" height="3"/>
	<rect x="380" y="281.3" class="st5" width="74.1" height="3"/>
	<rect x="380" y="290.4" class="st5" width="74.1" height="3"/>
	<rect x="192.7" y="497.6" class="st0" width="248.4" height="272.4"/>
	<rect x="217.7" y="471.5" class="st1" width="248.4" height="272.4"/>
	<rect x="230.7" y="713.2" class="st3" width="13.4" height="13.4"/>
	<rect x="250.1" y="713.2" class="st2" width="13.4" height="13.4"/>
	<rect x="269.4" y="713.2" class="st4" width="13.4" height="13.4"/>
	<rect x="381" y="719" class="st5" width="52.1" height="2.1"/>
	<rect x="381" y="725.4" class="st5" width="52.1" height="2.1"/>
	<rect x="381" y="731.7" class="st5" width="52.1" height="2.1"/>
	<path class="st2" d="M341.9,519.6v22c36.5,0,66.1,29.6,66.1,66.1c0,17.5-7,34.3-19.4,46.7l15.6,15.6c34.4-34.4,34.4-90.2,0-124.6
		C387.7,528.9,365.3,519.6,341.9,519.6z"/>
	<path class="st4" d="M404.2,670.1l-15.6-15.6c-23.4,23.4-60.4,25.9-86.7,5.9l-13.3,17.5C323.7,704.6,373.1,701.2,404.2,670.1z"/>
	<path class="st3" d="M275.8,607.8c0-36.5,29.6-66.1,66.1-66.1v-22c-48.7,0-88.1,39.5-88.1,88.1c0,27.5,12.9,53.5,34.8,70.2
		l13.3-17.5C285.5,647.9,275.8,628.4,275.8,607.8z"/>
	<rect x="499.2" y="253.3" class="st0" width="248.4" height="272.4"/>
	<rect x="524.2" y="227.2" class="st1" width="248.4" height="272.4"/>
	<polyline class="st6" points="548.2,244.3 548.2,452.6 749.5,452.6 	"/>
	<rect x="559.2" y="379.5" class="st4" width="45.1" height="72.1"/>
	<rect x="624.3" y="330.4" class="st2" width="45.1" height="121.2"/>
	<rect x="689.4" y="273.3" class="st3" width="45.1" height="178.3"/>
	<rect x="545.2" y="468.9" class="st4" width="13.4" height="13.4"/>
	
		<rect x="564.6" y="468.9" transform="matrix(1 -4.165813e-03 4.165813e-03 1 -1.9764 2.3839)" class="st2" width="13.4" height="13.4"/>
	<rect x="583.9" y="468.9" class="st3" width="13.4" height="13.4"/>
	<rect x="695.5" y="474.7" class="st5" width="52.1" height="2.1"/>
	<rect x="695.5" y="481.1" class="st5" width="52.1" height="2.1"/>
	<rect x="695.5" y="487.4" class="st5" width="52.1" height="2.1"/>
</g>
</svg>
