<svg enable-background="new 0 0 512 512" viewBox="0 0 512 512" xmlns="http://www.w3.org/2000/svg" xmlns:xlink="http://www.w3.org/1999/xlink"><linearGradient id="a" gradientUnits="userSpaceOnUse" x1="149.6311" x2="188.9822" y1="282.359" y2="259.6396"><stop offset=".001161859" stop-opacity="0"/><stop offset="1" stop-opacity=".33"/></linearGradient><linearGradient id="b" gradientTransform="matrix(-.7071 -.7071 .7071 -.7071 -34.9913 1244.5061)" gradientUnits="userSpaceOnUse" x1="414.3502" x2="381.5396" y1="980.3875" y2="1013.1981"><stop offset="0" stop-opacity=".33"/><stop offset="1" stop-opacity="0"/></linearGradient><path d="m348.6 164.8-67.8-.7 51 70.9 33.5-46.9z" fill="#1ebcd2"/><path d="m365.3 281.5 17.4 24.3 67 .7-51-71.5z" fill="#1ebcd2"/><path d="m280.8 306.5 67-.7 17.5-24.3-33.5-46.5z" fill="#f2b329"/><path d="m449.7 164.1-67.8.7-16.6 23.3 33.4 46.9z" fill="#f2b329"/><path d="m365.3 188.1-33.5 46.9 33.5 46.5 33.4-46.5z" fill="#1d9c5a"/><path d="m267.5 92.4-51.3-71.4h-102.6l51.3 71.4z" fill="#1d9c5a"/><path d="m62.3 92.4 51.3-71.4z" fill="#d9453c"/><path d="m62.3 235.3 51.3 71.4h102.6l-51.3-71.4z" fill="#4688f1"/><path d="m62.3 92.4 102.6 142.9h102.6l-102.6-142.9z" fill="#f2b329"/><path d="m113.6 21-51.3 71.4h102.6z" fill="#1ebcd2"/><path d="m216.2 306.7 51.3-71.4h-102.6z" fill="#d9453c"/><path d="m122.5 235.3 93.7 71.4-51.3-71.4z" fill="url(#a)"/><path d="m365.3 281.5 33.4-46.5 3.4 4.8 9.6 13.3z" fill="url(#b)"/><path d="m77 356.3c3.6 1.8 6.8 4.5 9.5 8.3l-7.8 8c-1.9-4.1-5.1-7.4-9.5-8.6-3.9-1-9.3-1.2-12.7 1.3-3.6 2.6-3.5 7.7.4 10 3.7 2.1 8.2 2.5 12.3 3.4 4.3 1 8.8 2.3 12.3 5.1s5 6.9 5 11.3c0 4.7-2 8.9-5.6 11.9-3.6 2.9-8.2 4.4-12.7 4.9-10.4 1.1-21.9-1.2-28-10.4l6.8-8.4c2 3.4 4.7 6.5 8.4 7.9 3.9 1.5 8.7 1.8 12.8 1 3.3-.7 7-3 6.2-6.9-.6-3.4-5.3-4.5-8.1-5.2-4.3-1.1-8.7-1.9-12.8-3.4-3.6-1.4-7.3-3.3-9.5-6.6-4.7-7.1-1.9-17.3 4.8-22 4-2.8 8.9-4 13.8-4.2 4.8-.2 9.9.5 14.4 2.6z" fill="#262626"/><path d="m120.6 411.4h-11.3l.1-56.8h11.3z" fill="#262626"/><path d="m190.1 364.3h-18.2l-.1 47.2h-11.3l.1-47.2h-18.3v-9.5l47.8.1z" fill="#262626"/><path d="m253.5 402v9.5l-41.9-.1.1-56.8 40.7.1v9.5h-29.4v14.1h23.1v9.1h-23.1v14.4z" fill="#262626"/><path d="m335.1 411.7h-10.2v-29.6l.5-16.6h-.2l-15.1 46.2h-9.3l-14.8-46.3h-.2l.6 16.6v29.6h-10.3l.1-56.8h16.4l9.7 31 3.4 12.8h.2l3.6-12.7 9.7-31h16z" fill="#262626"/><path d="m392.4 397.9h-20.9l-4.5 13.8h-11.6l19.9-56.7h13.6l19.7 56.8h-11.8zm-2.8-8.8-5.1-16-2.5-8.6h-.2l-2.3 8.4-5.3 16.2z" fill="#262626"/><path d="m466.6 359.9c3.5 3.2 5 7.7 5.2 12.3.2 4.5-.8 9.2-3.7 12.7-5 6-12.8 6.3-20 6.3-2.6 0-5.1 0-7.7 0v20.6h-11.3l.1-56.8c8 0 16-.2 24 .1 4.8.1 9.7 1.4 13.4 4.8zm-8.7 19.9c4-3.5 3.3-11.8-1.6-14.2-3.4-1.6-7.7-1.1-11.4-1.1-1.5 0-2.9 0-4.4 0v17.5h7.6c3.3 0 7.1.2 9.8-2.2z" fill="#262626"/><g fill="#9e9e9e"><path d="m100.3 461.4h-26.1c.3 5.7 2.9 11.1 8.7 12.7 5.3 1.5 12.1-.3 14.3-5.7l2.8 1.5c-3.7 7.5-14 9.8-21.2 5.9-7.5-4.1-9-14.1-7.2-21.8 1.9-8.1 9.1-12.7 17.4-11.3 8.6 1.5 12.3 10.7 11.3 18.7zm-22.6-12.5c-2.1 2.3-3.2 5.4-3.5 9.5h23.2c-.3-4.8-2-10-6.7-12.1-4.3-1.8-9.9-.9-13 2.6z"/><path d="m148.1 476.9-11.1-14.8-10.9 14.8h-4l13-17.2-12.4-16.4h4.2l10.3 13.7 10-13.7h4l-12.1 16.2 13.1 17.5h-4.1z"/><path d="m203.8 447.1c5.6 6.4 5.6 18.7.4 25.3-6.1 7.7-19.6 6.7-23.5-2.7v21.3h-3.3v-47.8h3l.2 7.6c3.3-9.6 16.8-11 23.2-3.7zm-2.5 23.6c4.6-5.6 4.6-16.5-.4-21.8-5.1-5.4-14.5-4.3-18.2 2.1-2.9 5-2.9 13.1 0 18.1 3.8 6.5 13.7 7.5 18.6 1.6z"/><path d="m238.3 468.7c0 5.4 3.8 6.8 8.5 4.7l-.5 3.2c-14 6.6-11.3-14.8-11.3-22.1 0-9 0-17.9 0-26.9h3.3z"/><path d="m295.9 447.2c5.6 6.2 5.8 18.1.8 24.7-5.4 7.2-17.8 7.7-23.8 1-5.5-6.1-5.7-17.5-1.2-24.2 5.3-7.7 18-8.5 24.2-1.5zm-20.6 2.1c-4.6 5.5-4.6 16 0 21.4 4.5 5.3 13.7 5.3 18.2 0 4.6-5.4 4.6-16 0-21.4-4.5-5.3-13.7-5.3-18.2 0z"/><path d="m345.4 443.6-.9 3.2c-3.9-3.2-9.5-.2-11.8 3.5-2 3.1-2.1 6.6-2.1 10.1v16.4h-3.3v-33.7h2.8l.4 6.9c2.1-5.1 9.5-10.4 14.9-6.4z"/><path d="m395.8 461.4h-26.1c.3 5.7 2.9 11.1 8.7 12.7 5.3 1.5 12.1-.3 14.3-5.7l2.8 1.5c-3.7 7.5-14 9.8-21.2 5.9-7.5-4.1-9-14.1-7.2-21.8 1.9-8.1 9.1-12.7 17.4-11.3 8.6 1.5 12.3 10.7 11.3 18.7zm-22.6-12.5c-2.1 2.3-3.2 5.4-3.5 9.5h23.2c-.3-4.8-2-10-6.7-12.1-4.3-1.8-9.9-.9-13 2.6z"/><path d="m441.1 443.6-.9 3.2c-3.9-3.2-9.5-.2-11.8 3.5-2 3.1-2.1 6.6-2.1 10.1v16.4h-3.3v-33.7h2.8l.4 6.9c2.1-5.1 9.5-10.4 14.9-6.4z"/></g></svg>