<svg enable-background="new 0 0 250 72" viewBox="0 0 250 72" xmlns="http://www.w3.org/2000/svg" xmlns:xlink="http://www.w3.org/1999/xlink"><linearGradient id="a" gradientTransform="matrix(1 0 0 -1 0 74)" gradientUnits="userSpaceOnUse" x1="19.2621" x2="27.0375" y1="20.3554" y2="24.8445"><stop offset=".001161859" stop-opacity="0"/><stop offset="1" stop-opacity=".33"/></linearGradient><linearGradient id="b" gradientTransform="matrix(-.7071 -.7071 -.7071 .7071 40.4914 643.7732)" gradientUnits="userSpaceOnUse" x1="405.5291" x2="399.046" y1="-435.7568" y2="-442.2399"><stop offset="0" stop-opacity=".33"/><stop offset="1" stop-opacity="0"/></linearGradient><path d="m58.6 30.4-13.4-.1 10.1 14 6.6-9.3z" fill="#1ebcd2"/><path d="m61.9 53.5 3.4 4.8 13.3.1-10.1-14.1z" fill="#1ebcd2"/><path d="m45.2 58.4 13.2-.1 3.5-4.8-6.6-9.2z" fill="#f2b329"/><path d="m78.6 30.3-13.4.1-3.3 4.6 6.6 9.3z" fill="#f2b329"/><path d="m61.9 35-6.6 9.3 6.6 9.2 6.6-9.2z" fill="#1d9c5a"/><path d="m42.5 16.1-10.1-14.1h-20.3l10.2 14.1z" fill="#1d9c5a"/><path d="m2 16.1 10.1-14.1z" fill="#d9453c"/><path d="m2 44.3 10.1 14.2h20.3l-10.1-14.2z" fill="#4688f1"/><path d="m2 16.1 20.3 28.2h20.2l-20.2-28.2z" fill="#f2b329"/><path d="m12.1 2-10.1 14.1h20.3z" fill="#1ebcd2"/><path d="m32.4 58.5 10.1-14.2h-20.2z" fill="#d9453c"/><path d="m13.9 44.3 18.5 14.2-10.1-14.2z" fill="url(#a)"/><path d="m61.9 53.5 6.6-9.2.7.9 1.8 2.7z" fill="url(#b)"/><path d="m102 21.5c1.3.6 2.5 1.7 3.5 3.1l-2.9 3c-.7-1.5-1.9-2.7-3.5-3.2-1.4-.4-3.4-.4-4.7.5-1.3 1-1.3 2.9.1 3.7s3 .9 4.5 1.3c1.6.4 3.3.9 4.5 1.9 1.3 1 1.9 2.5 1.8 4.2 0 1.7-.7 3.3-2.1 4.4-1.3 1.1-3 1.6-4.7 1.8-3.8.4-8.1-.4-10.3-3.8l2.5-3.1c.7 1.3 1.7 2.4 3.1 2.9 1.4.6 3.2.7 4.7.4 1.2-.2 2.6-1.1 2.3-2.6-.2-1.3-2-1.7-3-1.9-1.6-.4-3.2-.7-4.7-1.3-1.3-.5-2.7-1.2-3.5-2.4-1.7-2.6-.7-6.4 1.8-8.1 1.5-1 3.3-1.5 5.1-1.5 2-.3 3.8-.1 5.5.7z" fill="#353535"/><path d="m118.1 41.8h-4.2v-21h4.2z" fill="#353535"/><path d="m143.8 24.4h-6.7v17.5h-4.2v-17.5h-6.7v-3.5h17.7z" fill="#353535"/><path d="m167.3 38.4v3.5h-15.5v-21h15v3.5h-10.9v5.2h8.5v3.4h-8.5v5.3z" fill="#353535"/><path d="m197.4 42h-3.8v-10.9l.2-6.1h-.1l-5.6 17.1h-3.4l-5.5-17.1h-.1l.2 6.1v10.9h-3.8v-21h6.1l3.6 11.5 1.3 4.7h.1l1.3-4.7 3.6-11.5h5.9z" fill="#353535"/><path d="m218.6 36.9h-7.7l-1.6 5.1h-4.3l7.4-21h5l7.3 21h-4.3zm-1-3.3-1.9-5.9-.9-3.2h-.1l-.9 3.1-2 6z" fill="#353535"/><path d="m246.1 22.8c1.3 1.2 1.9 2.8 1.9 4.6.1 1.7-.3 3.4-1.4 4.7-1.9 2.2-4.7 2.3-7.4 2.3-.9 0-1.9 0-2.8 0v7.6h-4.2v-21c2.9 0 5.9-.1 8.9 0 1.8.1 3.6.6 5 1.8zm-3.3 7.4c1.5-1.3 1.2-4.4-.6-5.2-1.3-.6-2.8-.4-4.2-.4-.5 0-1.1 0-1.6 0v6.5h2.8c1.2-.1 2.6-.1 3.6-.9z" fill="#353535"/><g fill="#7f7f7f"><path d="m118.9 58.9h-9.9c.1 2.1 1.1 4.2 3.3 4.8 2 .6 4.6-.1 5.4-2.2l1 .6c-1.4 2.8-5.3 3.7-8 2.2-2.8-1.5-3.4-5.3-2.7-8.2.7-3.1 3.4-4.8 6.5-4.3 3.4.7 4.8 4.1 4.4 7.1zm-8.6-4.7c-.8.9-1.2 2.1-1.3 3.6h8.7c-.1-1.8-.8-3.8-2.5-4.6-1.6-.7-3.7-.3-4.9 1z"/><path d="m136.9 64.8-4.2-5.6-4.1 5.6h-1.5l4.9-6.5-4.7-6.2h1.6l3.9 5.2 3.8-5.2h1.5l-4.6 6.1 4.9 6.6z"/><path d="m157.9 53.5c2.1 2.4 2.1 7 .1 9.5-2.3 2.9-7.4 2.5-8.9-1v8h-1.2v-18h1.1l.1 2.9c1.3-3.6 6.4-4.1 8.8-1.4zm-.9 8.9c1.8-2.1 1.7-6.2-.2-8.2s-5.5-1.6-6.9.8c-1.1 1.9-1.1 4.9 0 6.8 1.5 2.5 5.3 2.9 7.1.6z"/><path d="m171 61.7c0 2 1.4 2.6 3.2 1.8l-.2 1.2c-5.3 2.5-4.3-5.6-4.3-8.3 0-3.4 0-6.8 0-10.2h1.2v15.5z"/><path d="m192.7 53.6c2.1 2.3 2.2 6.8.3 9.3-2 2.7-6.7 2.9-9 .4-2.1-2.3-2.2-6.6-.4-9.1 2-3 6.7-3.3 9.1-.6zm-7.8.8c-1.7 2.1-1.8 6 0 8.1 1.7 2 5.2 2 6.9 0 1.7-2.1 1.7-6 0-8.1-1.7-2-5.2-2-6.9 0z"/><path d="m211.4 52.2-.3 1.2c-1.5-1.2-3.6-.1-4.4 1.3-.7 1.2-.8 2.5-.8 3.8v6.2h-1.2v-12.7h1l.1 2.6c.7-1.9 3.5-3.9 5.6-2.4z"/><path d="m230.4 58.9h-9.9c.1 2.1 1.1 4.2 3.3 4.8 2 .6 4.6-.1 5.4-2.2l1 .6c-1.4 2.8-5.3 3.7-8 2.2-2.8-1.5-3.4-5.3-2.7-8.2.7-3.1 3.4-4.8 6.5-4.3 3.4.7 4.8 4.1 4.4 7.1zm-8.5-4.7c-.8.9-1.2 2.1-1.3 3.6h8.7c-.1-1.8-.8-3.8-2.5-4.6-1.6-.7-3.8-.3-4.9 1z"/><path d="m247.5 52.2-.3 1.2c-1.5-1.2-3.6-.1-4.4 1.3-.7 1.2-.8 2.5-.8 3.8v6.2h-1.2v-12.7h1l.1 2.6c.8-1.9 3.6-3.9 5.6-2.4z"/></g></svg>